<?xml version="1.0" encoding="utf-8"?>
<svg viewBox="19.585 18.433 453.918 448.733" xmlns="http://www.w3.org/2000/svg">
  <path d="M 246.256 18.77 C 121.083 18.77 19.634 119.187 19.634 243.088 C 19.634 366.989 121.083 467.406 246.256 467.406 C 371.429 467.406 472.878 366.989 472.878 243.088 C 472.878 119.187 371.429 18.77 246.256 18.77 Z M 359.567 271.128 L 201.374 271.128 L 245.088 314.397 C 256.153 325.35 256.153 343.093 245.088 354.046 C 234.022 365 216.096 365 205.03 354.046 L 112.939 262.891 C 105.857 255.969 104.617 247.382 104.617 243.088 C 104.617 238.809 105.849 230.242 112.937 223.241 L 204.205 132.901 C 215.271 121.948 233.197 121.948 244.263 132.901 C 255.328 143.854 255.328 161.597 244.263 172.55 L 201.374 215.048 L 359.567 215.048 C 375.227 215.048 387.895 227.605 387.895 243.088 C 387.895 258.571 375.236 271.128 359.567 271.128 Z" style="fill: rgb(162, 47, 47);"/>
</svg>